<?xml version="1.0" standalone="no"?><!DOCTYPE svg PUBLIC "-//W3C//DTD SVG 1.1//EN" "http://www.w3.org/Graphics/SVG/1.1/DTD/svg11.dtd"><svg t="1663148454086" class="icon" viewBox="0 0 1024 1024" version="1.1" xmlns="http://www.w3.org/2000/svg" p-id="3644" xmlns:xlink="http://www.w3.org/1999/xlink" width="280" height="280"><path d="M512 196.096c-43.52 0-83.968-12.8-117.76-34.816v142.848c33.792-22.016 74.24-34.816 117.76-34.816s83.968 12.8 117.76 34.816v-143.36c-33.792 22.016-74.24 35.328-117.76 35.328zM407.552 593.92l36.864-11.776 15.36-28.16c-21.504-15.872-35.84-41.472-35.84-70.656 0-48.64 39.424-88.064 88.064-88.064 27.648 0 52.224 12.8 68.096 32.256l8.704-46.08 32.256-23.552c-29.184-25.6-67.584-40.96-109.056-40.96-91.648 0-166.4 74.24-166.4 166.4 0 51.2 23.04 96.768 59.392 127.488l2.56-16.896z" fill="#dfdfdf" p-id="3645"></path><path d="M628.736 365.568l-12.8 12.288-25.088 67.072c6.144 11.776 9.216 25.088 9.216 39.424 0 48.64-39.424 88.064-88.064 88.064-14.336 0-27.648-3.584-39.424-9.216l-11.776 25.6-40.96 15.36v17.92c26.624 17.92 58.368 28.16 92.16 28.16 38.4 0 73.216-12.8 101.376-34.816 13.824 20.992 37.888 34.816 65.024 34.816V483.84c0-46.592-18.944-88.576-49.664-118.272z" fill="#dfdfdf" p-id="3646"></path><path d="M292.864 750.08H302.08v21.504h25.088c0 40.448-0.512 65.024-2.048 74.752-1.024 10.24-7.168 15.36-18.432 15.36l-9.216-0.512-2.048-8.192c5.12 0.512 8.704 0.512 10.24 0.512 6.656 0 10.24-3.584 11.264-10.752 0.512-6.656 1.024-27.648 1.536-62.464H302.08v2.56c-0.512 36.864-8.192 63.488-24.064 80.896l-7.168-6.144c14.336-15.36 22.016-39.936 22.016-74.24v-2.56h-19.456v-8.704h19.456v-22.016z m84.992 14.848V860.16h-8.704v-8.192h-22.016v8.192h-8.704v-95.232h39.424z m-30.72 78.848h22.016v-70.144h-22.016v70.144zM402.944 759.296h24.064v-10.24h8.704v10.24h22.016v8.192h-22.016v11.264h29.696c-0.512-9.216-0.512-19.456-0.512-30.208h8.704c0 11.264 0 20.992 0.512 30.208h30.72v8.192h-30.72c0.512 11.264 1.536 20.48 3.072 26.624 0.512 3.072 1.536 6.656 2.048 10.24 4.608-8.704 8.192-18.944 10.752-30.72l7.68 3.584c-4.096 15.36-9.216 28.16-15.36 38.4l3.072 7.68c3.072 6.144 5.632 9.216 7.68 9.216 2.048 0 3.584-6.656 5.12-19.456l7.68 4.096c-2.56 16.384-6.656 24.576-11.776 24.576-4.096 0-8.704-3.584-13.312-11.264-1.536-2.048-2.56-4.608-3.584-6.656-6.144 8.192-13.312 14.336-21.504 18.944l-4.608-7.168c8.704-5.12 16.384-12.288 22.528-21.504-2.048-5.632-3.584-11.776-4.608-17.92-2.048-8.704-3.072-18.432-3.584-28.672H396.8v-8.192h30.208v-11.264h-24.064v-8.192zM457.728 844.8c-1.024 0-4.096 0.512-9.216 1.024l-9.728 1.024v14.336H430.08v-13.824c-7.168 0.512-16.384 1.536-28.16 2.56l-1.024-8.192c8.192-0.512 17.92-1.024 29.184-2.048v-10.24h-24.064l-1.536-7.168c3.584-4.096 6.656-9.216 9.728-15.36h-13.312V798.72h16.896c1.024-2.048 2.048-5.12 3.584-9.216l8.704 1.536-3.072 7.68h32.256v7.68h-35.84c-2.56 5.632-5.632 10.752-8.704 15.36h15.36v-9.728h8.704v9.728h18.432v7.68h-18.432v10.24c6.656-0.512 13.312-1.536 18.944-2.048v7.168z m28.16-94.208c6.144 7.168 11.264 13.312 14.336 17.92l-6.656 4.608c-3.584-5.632-8.192-11.776-14.336-18.432l6.656-4.096zM550.912 755.2c-2.048 5.12-4.096 10.752-6.656 15.872h24.576v-21.504h9.216v21.504h40.96v8.704h-40.96v8.192c0 6.144-1.024 11.776-1.536 16.384h50.688v8.704h-45.568c6.144 17.92 22.016 31.232 47.616 41.472l-5.12 7.68c-26.624-11.776-43.52-27.136-50.176-47.104-2.048 8.192-5.632 15.36-9.728 20.992-8.704 11.264-22.528 19.968-41.984 26.112l-4.608-7.68c19.456-6.656 32.768-14.848 40.448-24.576 3.072-5.12 5.632-10.752 7.68-16.896h-45.568v-8.704h47.616c1.024-4.608 1.536-10.24 1.536-16.384v-8.192h-29.184c-4.608 7.68-9.216 13.312-14.336 18.432l-7.68-6.656c10.752-9.728 19.456-23.04 24.576-39.424l8.192 3.072zM664.064 772.096h7.68v37.376c0 14.336-2.56 25.6-6.144 33.792-4.096 8.192-10.752 14.336-19.968 18.432l-4.608-7.68c8.704-4.096 14.848-9.728 18.432-16.896 3.072-7.168 5.12-16.384 5.12-28.16v-36.864z m26.624-17.408v76.8h-8.192V762.88h-29.184v68.608H645.12v-76.8h45.568z m-14.336 80.384c7.168 7.168 12.8 13.824 17.92 20.48l-6.656 6.144c-4.096-6.656-9.728-13.824-16.896-20.992l5.632-5.632z m21.504-29.184l-5.12-6.656c9.216-11.776 14.848-28.672 17.408-50.176l8.704 1.024c-1.024 6.144-2.048 12.288-3.584 18.432h35.84v8.704h-7.68c-0.512 21.504-5.12 39.936-13.312 54.784 6.656 8.704 14.336 15.872 23.552 22.016l-4.608 8.192c-9.216-6.144-17.408-13.824-23.552-22.528-6.144 8.704-13.824 16.384-23.04 22.528l-4.608-7.68c9.216-5.632 16.896-13.312 23.04-22.016-6.656-11.264-11.264-23.552-13.824-37.888-3.584 4.608-6.656 8.192-9.216 11.264z m14.848-28.672l-1.536 4.096c2.048 16.384 6.144 30.72 13.312 43.008 6.656-13.312 9.728-28.672 10.24-46.592h-22.016z" fill="#dfdfdf" p-id="3647"></path></svg>